<svg xmlns="http://www.w3.org/2000/svg" width="100" height="100" viewBox="0 0 100 100">
  <!-- 左侧文档 -->
  <rect x="10" y="15" width="35" height="70" rx="3" fill="#e3f2fd" stroke="#2196f3" stroke-width="2"/>
  <line x1="15" y1="25" x2="40" y2="25" stroke="#42a5f5" stroke-width="1.5"/>
  <line x1="15" y1="35" x2="40" y2="35" stroke="#42a5f5" stroke-width="1.5"/>
  <line x1="15" y1="45" x2="30" y2="45" stroke="#f44336" stroke-width="1.5"/>
  <line x1="15" y1="55" x2="40" y2="55" stroke="#42a5f5" stroke-width="1.5"/>
  <line x1="15" y1="65" x2="40" y2="65" stroke="#42a5f5" stroke-width="1.5"/>
  
  <!-- 右侧文档 -->
  <rect x="55" y="15" width="35" height="70" rx="3" fill="#e8f5e9" stroke="#4caf50" stroke-width="2"/>
  <line x1="60" y1="25" x2="85" y2="25" stroke="#66bb6a" stroke-width="1.5"/>
  <line x1="60" y1="35" x2="85" y2="35" stroke="#66bb6a" stroke-width="1.5"/>
  <line x1="60" y1="45" x2="85" y2="45" stroke="#66bb6a" stroke-width="1.5"/>
  <line x1="60" y1="55" x2="75" y2="55" stroke="#4caf50" stroke-width="2"/>
  <line x1="60" y1="65" x2="85" y2="65" stroke="#66bb6a" stroke-width="1.5"/>
  
  <!-- 差异指示器 -->
  <circle cx="50" cy="50" r="12" fill="#ffeb3b" stroke="#ff9800" stroke-width="1.5"/>
  <path d="M44 46 L50 54 L56 46" fill="none" stroke="#ff9800" stroke-width="2"/>
  <path d="M44 54 L50 46 L56 54" fill="none" stroke="#ff9800" stroke-width="2"/>
</svg>